<svg width="206" height="71" viewBox="0 0 206 71" fill="none" xmlns="http://www.w3.org/2000/svg">
<g clip-path="url(#clip0_61_328)">
<path fill-rule="evenodd" clip-rule="evenodd" d="M198.5 0H179.5L177.5 4L172.5 4L170.5 0H108V5H105V0H103V2H102V0H100V5H97V0H13L0 11V21H206V0.75L204.5 3L200.5 3L198.5 0Z" fill="#FF0000"/>
<path d="M0.5 7.94488V0.5H9.5993L0.5 7.94488Z" stroke="#56EBFF"/>
</g>
<path fill-rule="evenodd" clip-rule="evenodd" d="M8 54V21H15V54H12.6323H9.90502H8Z" fill="#FF0000"/>
<path d="M6 22.7599L0 21.4V53.7995L6 52.5V22.7599Z" fill="#56EBFF"/>
<path d="M24.5 54.1096V25.0531L29.5 23.6585V55.3596L24.5 54.1096Z" stroke="#56EBFF"/>
<rect width="161" height="33" transform="translate(15 21)" fill="#FF0000"/>
<path d="M51.74 33.5C51.74 32.18 51.24 31.26 50.24 30.74C49.2533 30.2067 47.78 29.94 45.82 29.94C43.8467 29.94 42.36 30.2067 41.36 30.74C40.3733 31.26 39.88 32.18 39.88 33.5V34.64C39.88 35.3467 40 35.9333 40.24 36.4C40.4933 36.8667 40.8667 37.24 41.36 37.52C41.8667 37.7867 42.4867 37.98 43.22 38.1C43.9667 38.2067 44.8333 38.26 45.82 38.26C46.7933 38.26 47.6467 38.2067 48.38 38.1C49.1267 37.98 49.7467 37.7867 50.24 37.52C50.7467 37.24 51.12 36.8667 51.36 36.4C51.6133 35.9333 51.74 35.3467 51.74 34.64V33.5ZM35.84 34.06C35.84 32.7133 36.06 31.5867 36.5 30.68C36.94 29.76 37.58 29.0267 38.42 28.48C39.2733 27.92 40.32 27.52 41.56 27.28C42.8 27.04 44.22 26.92 45.82 26.92C47.42 26.92 48.84 27.04 50.08 27.28C51.32 27.52 52.36 27.92 53.2 28.48C54.0533 29.0267 54.6933 29.76 55.12 30.68C55.56 31.5867 55.78 32.7133 55.78 34.06C55.78 35.42 55.56 36.5667 55.12 37.5C54.6933 38.42 54.0533 39.16 53.2 39.72C52.36 40.28 51.32 40.68 50.08 40.92C48.84 41.16 47.42 41.28 45.82 41.28C44.22 41.28 42.8 41.16 41.56 40.92C40.32 40.68 39.2733 40.28 38.42 39.72C37.58 39.16 36.94 38.42 36.5 37.5C36.06 36.5667 35.84 35.42 35.84 34.06ZM72.2844 30.82V41H68.5044V33.4H62.5844V41H58.7844V30.82H72.2844ZM74.9977 37.96H75.3777C75.7377 37.96 76.031 37.92 76.2577 37.84C76.4843 37.7467 76.6643 37.5933 76.7977 37.38C76.9443 37.1533 77.0443 36.8533 77.0977 36.48C77.151 36.1067 77.1777 35.6333 77.1777 35.06V30.82H89.1977V41H85.3977V33.4H80.6577V35.24C80.6577 36.3067 80.5777 37.2067 80.4177 37.94C80.271 38.6733 80.0177 39.2667 79.6577 39.72C79.2977 40.1733 78.811 40.5 78.1977 40.7C77.5977 40.9 76.8377 41 75.9177 41H74.9977V37.96ZM92.2161 38.14C92.2161 37.66 92.3028 37.2267 92.4761 36.84C92.6628 36.4533 92.9494 36.1267 93.3361 35.86C93.7361 35.58 94.2428 35.3667 94.8561 35.22C95.4828 35.06 96.2294 34.9667 97.0961 34.94L102.336 34.82V34.52C102.336 33.8933 102.096 33.46 101.616 33.22C101.149 32.98 100.423 32.86 99.4361 32.86C98.4494 32.86 97.7161 32.9533 97.2361 33.14C96.7561 33.3267 96.4628 33.64 96.3561 34.08H92.6361C92.8228 32.9067 93.4561 32.0267 94.5361 31.44C95.6161 30.84 97.2428 30.54 99.4161 30.54C101.656 30.54 103.329 30.86 104.436 31.5C105.543 32.14 106.096 33.1467 106.096 34.52V41H102.456V39.3C102.056 39.9267 101.416 40.4133 100.536 40.76C99.6561 41.1067 98.5361 41.28 97.1761 41.28C95.4028 41.28 94.1294 41.0067 93.3561 40.46C92.5961 39.9133 92.2161 39.14 92.2161 38.14ZM98.3361 38.98C98.9094 38.98 99.4428 38.94 99.9361 38.86C100.429 38.78 100.849 38.6533 101.196 38.48C101.556 38.3067 101.836 38.0867 102.036 37.82C102.236 37.5533 102.336 37.2333 102.336 36.86V36.6L98.2361 36.68C97.4361 36.7067 96.8628 36.8 96.5161 36.96C96.1828 37.12 96.0161 37.3933 96.0161 37.78V37.9C96.0161 38.2867 96.1894 38.5667 96.5361 38.74C96.8828 38.9 97.4828 38.98 98.3361 38.98ZM108.305 33.4V30.82H121.525V33.4H116.805V41H113.025V33.4H108.305ZM127.931 30.82V37.34L134.051 30.82H138.111V41H134.351V34.46L128.231 41H124.171V30.82H127.931ZM140.774 33.4V30.82H153.994V33.4H149.274V41H145.494V33.4H140.774ZM156.64 30.82H160.44V33.74H166C167.373 33.74 168.407 34.0467 169.1 34.66C169.807 35.26 170.16 36.1467 170.16 37.32C170.16 38.52 169.807 39.4333 169.1 40.06C168.407 40.6867 167.373 41 166 41H156.64V30.82ZM166.34 37.14C166.34 36.4733 165.88 36.14 164.96 36.14H160.44V38.6H164.96C165.88 38.6 166.34 38.24 166.34 37.52V37.14Z" fill="white"/>
<path fill-rule="evenodd" clip-rule="evenodd" d="M198 21H176V54H198V21Z" fill="#FF0000"/>
<path d="M200 22.7599L206 21.4V53.7995L200 52.5V22.7599Z" fill="#56EBFF"/>
<path fill-rule="evenodd" clip-rule="evenodd" d="M31.8333 71H51.5L53.5 67L58.5 67L60.5 71L206 71V54H0V71H25.1667L26.5 69L30.5 69L31.8333 71ZM190 67H201V58L190 67ZM197.5 68.5L167 68.5V67.5L197.5 67.5V68.5ZM165 68.5H163V67.5H165V68.5ZM159 68.5H161V67.5H159V68.5Z" fill="#FF0000"/>
<path d="M200.5 59.0551V66.5H191.401L200.5 59.0551Z" stroke="#56EBFF"/>
<defs>
<clipPath id="clip0_61_328">
<rect width="206" height="21" fill="white"/>
</clipPath>
</defs>
</svg>
